<svg width="32" height="32" viewBox="0 0 32 32" fill="none" xmlns="http://www.w3.org/2000/svg">
<path d="M22.5 15.4C22.7 15.7 22.9 16 23 16.5H19.8C19.8 16.4 19.8 16.2 19.9 16C20 15.8 20 15.7 20.2 15.5C20.3 15.3 20.5 15.2 20.7 15.1C20.9 15 21.2 14.9 21.5 14.9C21.9 15 22.3 15.1 22.5 15.4ZM13.3 14.7C13.5 14.5 13.7 14.2 13.7 13.8C13.7 13.6 13.7 13.4 13.6 13.2C13.5 13.1 13.4 12.9 13.3 12.9C13.2 12.8 13 12.8 12.8 12.7H10.2V15H12.4C12.7 15 13 14.9 13.3 14.7ZM12.5 16.4H10.2V19.1H12.5C12.7 19.1 12.9 19.1 13.1 19C13.3 19 13.5 18.9 13.6 18.8C13.7 18.7 13.9 18.6 14 18.4C14.1 18.2 14.1 18 14.1 17.8C14.1 17.3 14 16.9 13.7 16.7C13.4 16.5 13 16.4 12.5 16.4ZM29 7.9V24.1C29 26.8 26.8 29 24.1 29H7.9C5.2 29 3 26.8 3 24.1V7.9C3 5.2 5.2 3 7.9 3H24.1C26.8 3 29 5.2 29 7.9ZM19.4 12.6H23.4V11.6H19.4V12.6ZM16.2 18C16.2 17.4 16.1 16.9 15.8 16.4C15.5 16 15.1 15.7 14.5 15.5C14.9 15.3 15.3 15 15.5 14.7C15.7 14.4 15.8 14 15.8 13.5C15.8 13 15.7 12.7 15.6 12.3C15.4 12 15.2 11.7 15 11.6C14.7 11.4 14.4 11.3 14 11.2C13.5 11 13.1 11 12.6 11H8V20.8H12.8C13.2 20.8 13.7 20.7 14.1 20.6C14.5 20.5 14.9 20.3 15.2 20.1C15.5 19.9 15.8 19.6 16 19.2C16.1 18.9 16.2 18.5 16.2 18ZM19.8 17.7H24.9C24.9 17.1 24.9 16.6 24.8 16.1C24.7 15.6 24.5 15.1 24.2 14.8C23.9 14.4 23.5 14.1 23.1 13.9C22.6 13.7 22.1 13.5 21.5 13.5C21 13.5 20.5 13.6 20 13.8C19.6 14 19.2 14.3 18.8 14.6C18.5 14.9 18.2 15.3 18.1 15.8C17.9 16.3 17.8 16.8 17.8 17.3C17.8 17.8 17.9 18.4 18.1 18.8C18.3 19.3 18.5 19.7 18.8 20C19.1 20.3 19.5 20.6 19.9 20.8C20.4 21 20.9 21.1 21.4 21.1C22.2 21.1 22.9 20.9 23.5 20.5C24.1 20.1 24.5 19.5 24.8 18.7H23.1C23 18.9 22.9 19.1 22.6 19.3C22.3 19.5 22 19.6 21.6 19.6C21.1 19.6 20.6 19.5 20.3 19.2C20 18.8 19.8 18.3 19.8 17.7Z" fill="#B0B0B0"/>
</svg>
