<svg width="48" height="48" viewBox="0 0 48 48" fill="none" xmlns="http://www.w3.org/2000/svg">
<path d="M36.6004 11.4204C36.4154 11.235 36.1956 11.0879 35.9537 10.9876C35.7117 10.8872 35.4524 10.8356 35.1904 10.8356C34.9285 10.8356 34.6691 10.8872 34.4272 10.9876C34.1852 11.0879 33.9655 11.235 33.7804 11.4204L24.0004 21.1804L14.2204 11.4004C14.0353 11.2153 13.8155 11.0684 13.5735 10.9682C13.3316 10.868 13.0723 10.8164 12.8104 10.8164C12.5486 10.8164 12.2893 10.868 12.0474 10.9682C11.8054 11.0684 11.5856 11.2153 11.4004 11.4004C11.2153 11.5856 11.0684 11.8054 10.9682 12.0474C10.868 12.2893 10.8164 12.5486 10.8164 12.8104C10.8164 13.0723 10.868 13.3316 10.9682 13.5735C11.0684 13.8155 11.2153 14.0353 11.4004 14.2204L21.1804 24.0004L11.4004 33.7804C11.2153 33.9656 11.0684 34.1854 10.9682 34.4274C10.868 34.6693 10.8164 34.9286 10.8164 35.1904C10.8164 35.4523 10.868 35.7116 10.9682 35.9535C11.0684 36.1955 11.2153 36.4153 11.4004 36.6004C11.5856 36.7856 11.8054 36.9325 12.0474 37.0327C12.2893 37.1329 12.5486 37.1845 12.8104 37.1845C13.0723 37.1845 13.3316 37.1329 13.5735 37.0327C13.8155 36.9325 14.0353 36.7856 14.2204 36.6004L24.0004 26.8204L33.7804 36.6004C33.9656 36.7856 34.1854 36.9325 34.4274 37.0327C34.6693 37.1329 34.9286 37.1845 35.1904 37.1845C35.4523 37.1845 35.7116 37.1329 35.9535 37.0327C36.1955 36.9325 36.4153 36.7856 36.6004 36.6004C36.7856 36.4153 36.9325 36.1955 37.0327 35.9535C37.1329 35.7116 37.1845 35.4523 37.1845 35.1904C37.1845 34.9286 37.1329 34.6693 37.0327 34.4274C36.9325 34.1854 36.7856 33.9656 36.6004 33.7804L26.8204 24.0004L36.6004 14.2204C37.3604 13.4604 37.3604 12.1804 36.6004 11.4204Z" fill="#F6F6F6"/>
</svg>
