<svg width="32" height="32" viewBox="0 0 32 32" fill="none" xmlns="http://www.w3.org/2000/svg">
<path d="M17.3708 2.66602C18.8708 2.67002 19.6321 2.67802 20.2895 2.69668L20.5481 2.70602C20.8468 2.71668 21.1415 2.73002 21.4975 2.74602C22.9161 2.81268 23.8841 3.03668 24.7335 3.36602C25.6135 3.70468 26.3548 4.16335 27.0961 4.90335C27.7741 5.56988 28.2987 6.37613 28.6335 7.26602C28.9628 8.11535 29.1868 9.08335 29.2535 10.5033C29.2695 10.858 29.2828 11.1527 29.2935 11.4527L29.3015 11.7113C29.3215 12.3673 29.3295 13.1287 29.3321 14.6287L29.3335 15.6234V17.37C29.3367 18.3426 29.3265 19.3151 29.3028 20.2873L29.2948 20.546C29.2841 20.846 29.2708 21.1407 29.2548 21.4953C29.1881 22.9153 28.9615 23.882 28.6335 24.7327C28.2997 25.6231 27.7749 26.4295 27.0961 27.0954C26.4294 27.7731 25.6232 28.2977 24.7335 28.6327C23.8841 28.962 22.9161 29.186 21.4975 29.2527C21.1811 29.2676 20.8646 29.2809 20.5481 29.2927L20.2895 29.3007C19.6321 29.3193 18.8708 29.3287 17.3708 29.3314L16.3761 29.3327H14.6308C13.6578 29.336 12.6848 29.3258 11.7121 29.302L11.4535 29.294C11.1369 29.282 10.8205 29.2682 10.5041 29.2527C9.08545 29.186 8.11745 28.962 7.26678 28.6327C6.37701 28.2985 5.57107 27.7738 4.90545 27.0954C4.22685 26.4291 3.70175 25.6228 3.36679 24.7327C3.03745 23.8833 2.81345 22.9153 2.74678 21.4953C2.73193 21.179 2.7186 20.8625 2.70678 20.546L2.70012 20.2873C2.67555 19.3151 2.66444 18.3426 2.66678 17.37V14.6287C2.66306 13.6561 2.67284 12.6836 2.69612 11.7113L2.70545 11.4527C2.71612 11.1527 2.72945 10.858 2.74545 10.5033C2.81212 9.08335 3.03612 8.11668 3.36545 7.26602C3.70027 6.37522 4.22641 5.56871 4.90679 4.90335C5.57224 4.22531 6.37764 3.70066 7.26678 3.36602C8.11745 3.03668 9.08412 2.81268 10.5041 2.74602C10.8588 2.73002 11.1548 2.71668 11.4535 2.70602L11.7121 2.69802C12.6844 2.67433 13.6569 2.6641 14.6295 2.66735L17.3708 2.66602ZM16.0001 9.33268C14.232 9.33268 12.5363 10.0351 11.2861 11.2853C10.0358 12.5355 9.33345 14.2312 9.33345 15.9993C9.33345 17.7675 10.0358 19.4632 11.2861 20.7134C12.5363 21.9636 14.232 22.666 16.0001 22.666C17.7682 22.666 19.4639 21.9636 20.7142 20.7134C21.9644 19.4632 22.6668 17.7675 22.6668 15.9993C22.6668 14.2312 21.9644 12.5355 20.7142 11.2853C19.4639 10.0351 17.7682 9.33268 16.0001 9.33268ZM16.0001 11.9993C16.5254 11.9993 17.0456 12.1026 17.5309 12.3036C18.0162 12.5045 18.4572 12.7991 18.8287 13.1705C19.2002 13.5418 19.4949 13.9827 19.696 14.468C19.8971 14.9533 20.0007 15.4734 20.0008 15.9987C20.0009 16.524 19.8975 17.0441 19.6966 17.5295C19.4956 18.0148 19.2011 18.4558 18.8297 18.8273C18.4583 19.1988 18.0174 19.4935 17.5321 19.6946C17.0469 19.8957 16.5267 19.9993 16.0015 19.9993C14.9406 19.9993 13.9232 19.5779 13.173 18.8278C12.4229 18.0776 12.0015 17.0602 12.0015 15.9993C12.0015 14.9385 12.4229 13.9211 13.173 13.1709C13.9232 12.4208 14.9406 11.9993 16.0015 11.9993M23.0015 7.33268C22.5594 7.33268 22.1355 7.50828 21.8229 7.82084C21.5104 8.1334 21.3348 8.55732 21.3348 8.99935C21.3348 9.44138 21.5104 9.8653 21.8229 10.1779C22.1355 10.4904 22.5594 10.666 23.0015 10.666C23.4435 10.666 23.8674 10.4904 24.18 10.1779C24.4925 9.8653 24.6681 9.44138 24.6681 8.99935C24.6681 8.55732 24.4925 8.1334 24.18 7.82084C23.8674 7.50828 23.4435 7.33268 23.0015 7.33268Z" fill="#B0B0B0"/>
</svg>
