<svg width="40" height="40" viewBox="0 0 40 40" fill="none" xmlns="http://www.w3.org/2000/svg">
<g clip-path="url(#clip0_132_732)">
<path d="M20 3.33398C23.9782 3.33398 27.7936 4.91434 30.6066 7.72738C33.4196 10.5404 35 14.3557 35 18.334C35 23.4573 32.2067 27.6507 29.2633 30.659C27.7925 32.1455 26.188 33.4934 24.47 34.6857L23.76 35.169L23.4267 35.3907L22.7983 35.7907L22.2383 36.1323L21.545 36.5357C21.0742 36.8036 20.5417 36.9445 20 36.9445C19.4583 36.9445 18.9258 36.8036 18.455 36.5357L17.7617 36.1323L16.895 35.599L16.575 35.3907L15.8917 34.9357C14.0383 33.6812 12.3118 32.2489 10.7367 30.659C7.79333 27.649 5 23.4573 5 18.334C5 14.3557 6.58035 10.5404 9.3934 7.72738C12.2064 4.91434 16.0218 3.33398 20 3.33398ZM20 13.334C19.3434 13.334 18.6932 13.4633 18.0866 13.7146C17.48 13.9659 16.9288 14.3342 16.4645 14.7985C16.0002 15.2627 15.6319 15.8139 15.3806 16.4206C15.1293 17.0272 15 17.6774 15 18.334C15 18.9906 15.1293 19.6408 15.3806 20.2474C15.6319 20.854 16.0002 21.4052 16.4645 21.8695C16.9288 22.3338 17.48 22.7021 18.0866 22.9534C18.6932 23.2047 19.3434 23.334 20 23.334C21.3261 23.334 22.5979 22.8072 23.5355 21.8695C24.4732 20.9318 25 19.6601 25 18.334C25 17.0079 24.4732 15.7361 23.5355 14.7985C22.5979 13.8608 21.3261 13.334 20 13.334Z" fill="#F6F6F6"/>
</g>
<defs>
<clipPath id="clip0_132_732">
<rect width="40" height="40" fill="white"/>
</clipPath>
</defs>
</svg>
