<svg width="64" height="64" viewBox="0 0 64 64" fill="none" xmlns="http://www.w3.org/2000/svg">
<path d="M15.4779 13.9695C16.1769 13.9302 16.7404 14.3233 17.2469 14.792C18.8389 16.269 20.4016 17.7748 21.9966 19.2473C27.3745 24.2137 32.76 29.1726 38.1471 34.1314C41.6605 37.3667 45.1832 40.59 48.6904 43.8313C49.297 44.3922 49.8851 44.9788 50.4117 45.6123C51.5895 47.0289 50.9074 49.0941 49.1784 49.4584C48.3532 49.6323 47.7112 49.3012 47.1338 48.7811C45.1831 47.0213 43.2263 45.2676 41.2879 43.4942C36.3443 38.9723 31.399 34.4489 26.4723 29.9103C22.4724 26.226 18.4925 22.519 14.5111 18.815C14.1493 18.4778 13.8167 18.1044 13.5119 17.7158C12.9253 16.966 12.8467 16.139 13.2563 15.2863C13.6504 14.4684 14.5218 13.9514 15.4779 13.9695Z" fill="white"/>
<path d="M34.1414 47.9403C34.1275 49.239 34.2107 50.7327 33.601 51.9467C32.5187 53.8591 29.9013 52.9384 29.5164 51.0048C29.3163 50.0387 29.3932 49.0727 29.4256 48.0945C29.6319 45.7557 28.6542 43.7041 26.9607 42.0834C23.7075 39.0507 20.3988 36.0693 17.1564 33.026C16.0202 32.0357 14.9871 30.6827 15.506 29.1239C15.8 28.17 16.7592 27.3672 17.7892 27.6046C18.3619 27.7225 18.8639 28.1413 19.3134 28.5555C23.0131 31.9798 26.7405 35.3724 30.3894 38.8466C31.2023 39.6342 31.9475 40.4884 32.6203 41.394C34.2107 43.2899 34.0752 45.5924 34.1414 47.9101V47.9403Z" fill="white"/>
<path d="M48.3948 33.7461C48.3224 33.9759 48.2393 34.4294 48.0407 34.824C47.5573 35.781 46.5226 36.0955 45.6158 35.4922C44.8614 34.9918 44.1824 34.372 43.5158 33.7582C39.5759 30.1313 35.6499 26.4923 31.7208 22.8548C30.0873 21.3429 29.2405 19.5 29.2682 17.2791C29.2852 15.9684 29.259 14.6561 29.296 13.3453C29.3252 12.3021 29.9765 11.4495 30.8987 11.135C31.784 10.8326 32.8848 11.0307 33.3744 11.8048C33.7608 12.417 33.9317 13.1926 34.0626 13.9198C34.1734 14.5366 34.1103 15.1867 34.0918 15.8217C34.0441 17.5316 34.6338 19.0192 35.8239 20.2287C37.3004 21.7285 38.8492 23.1617 40.3827 24.607C42.5489 26.6495 44.7352 28.6693 46.8998 30.7133C47.7143 31.4828 48.3563 32.3552 48.3948 33.7461Z" fill="white"/>
</svg>
